<svg width="124" height="48" viewBox="0 0 124 48" fill="none" xmlns="http://www.w3.org/2000/svg">
<rect x="31" y="17" width="62" height="13" fill="#D9D9D9"/>
<rect x="35" y="22" width="54" height="3" rx="1.5" fill="#FF5005"/>
<rect width="18" height="48" rx="5" transform="matrix(-1 0 0 1 111 0)" fill="#D9D9D9"/>
<path d="M124 14C124 11.2386 121.761 9 119 9H110V41H119C121.761 41 124 38.7614 124 36V14Z" fill="#D9D9D9"/>
<rect x="104" y="7" width="34" height="3" rx="1.5" transform="rotate(90 104 7)" fill="#FF5005"/>
<rect x="118" y="13" width="23" height="3" rx="1.5" transform="rotate(90 118 13)" fill="#FF5005"/>
<rect x="13" width="18" height="48" rx="5" fill="#D9D9D9"/>
<path d="M0 14C0 11.2386 2.23858 9 5 9H14V41H5C2.23858 41 0 38.7614 0 36V14Z" fill="#D9D9D9"/>
<rect width="34" height="3" rx="1.5" transform="matrix(0 1 1 0 20 7)" fill="#FF5005"/>
<rect width="23" height="3" rx="1.5" transform="matrix(0 1 1 0 6 13)" fill="#FF5005"/>
</svg>
