<svg width="248" height="104" viewBox="0 0 248 104" fill="none" xmlns="http://www.w3.org/2000/svg">
<g filter="url(#filter0_d_7_75)">
<path d="M23.2412 70.6182C65.4355 57.1864 97.7887 51.1463 129.175 51.5156C160.555 51.885 190.799 58.6595 228.751 70.6152C230.068 71.0301 230.799 72.4341 230.385 73.751C229.996 74.9857 228.737 75.7061 227.496 75.4492L227.249 75.3848C189.487 63.4887 159.782 56.8766 129.116 56.5156C98.4571 56.1548 66.6672 62.0411 24.7588 75.3818C23.4433 75.8006 22.0372 75.0741 21.6182 73.7588C21.1994 72.4433 21.9259 71.0372 23.2412 70.6182Z" fill="#FF5005"/>
<path d="M25.7656 90.7781C63.7789 79.09 93.948 73.8243 124.707 74.1365C155.439 74.4485 186.62 80.3276 226.63 90.7479L225.37 95.5867C185.496 85.2018 154.778 79.4423 124.656 79.1365C94.5616 78.831 64.9221 83.9684 27.2344 95.5565L25.7656 90.7781Z" fill="#FF5005"/>
<path d="M227.036 71.141C228.155 70.3326 229.718 70.5844 230.526 71.7035C231.335 72.8227 231.083 74.3853 229.964 75.1937L222.66 80.4672L228.253 92.0824C228.852 93.3264 228.329 94.8212 227.085 95.4203C225.841 96.0192 224.346 95.4962 223.747 94.2523L216.34 78.8666L227.036 71.141Z" fill="#FF5005"/>
</g>
<path d="M25.4639 70.9736C24.3446 70.1653 22.7821 70.417 21.9736 71.5361C21.1653 72.6554 21.417 74.2179 22.5361 75.0264L29.8398 80.2998L24.2471 91.915C23.6481 93.159 24.1711 94.6539 25.415 95.2529C26.659 95.8519 28.1539 95.3288 28.7529 94.085L36.1602 78.6992L25.4639 70.9736Z" fill="#FF5005"/>
<path d="M19.5217 68.8401L8.83634 34.7738C9.52599 34.4373 10.1937 34.0921 10.8395 33.7382C11.5025 33.3405 12.1283 32.9409 12.7169 32.5392C13.275 32.1509 13.8616 31.7864 14.4768 31.4459C15.0787 31.0748 15.6786 30.7409 16.2766 30.4443L16.5382 31.421C16.6407 31.74 16.7326 32.1181 16.8138 32.5553C16.9124 32.9487 17.0375 33.4031 17.1893 33.9188C17.5021 35.055 17.8509 36.3573 18.2357 37.8258C18.6205 39.2943 19.0412 40.9289 19.4979 42.7296C19.7669 43.8485 20.0984 45.1947 20.4926 46.7682C20.9173 48.3284 21.3826 50.1071 21.8885 52.1045L22.5762 51.8052C22.3615 50.2263 22.1695 48.783 22.0001 47.4753C21.8307 46.1675 21.6753 45.0173 21.534 44.0245C21.3927 43.0317 21.276 42.1373 21.1839 41.3412C21.1091 40.5013 21.0217 39.7577 20.9217 39.1105C20.579 36.5694 20.2936 34.4942 20.0656 32.8848C19.8376 31.2753 19.6916 30.2301 19.6276 29.749L20.0402 29.5694C20.8348 29.2234 21.6334 28.8031 22.4359 28.3083C23.2691 27.8002 24.0038 27.3167 24.6402 26.8579C24.6629 26.9935 24.8213 27.5244 25.1155 28.4506C25.4096 29.3769 25.7749 30.5084 26.2115 31.8453C26.648 33.1821 27.1046 34.5648 27.581 35.9934C28.498 38.6844 29.2839 41.0325 29.9387 43.0378C30.6241 45.0298 31.1651 46.6484 31.5617 47.8936L32.3869 47.5343L28.1606 25.9253L31.0525 24.1756C31.4538 23.9282 31.8704 23.6741 32.3022 23.4134C32.734 23.1527 33.1811 22.8854 33.6435 22.6114C34.4766 22.1033 35.2573 21.5999 35.9854 21.1011C36.1861 24.0676 36.5864 27.4924 37.1862 31.3758C37.7861 35.2591 38.4059 39.1882 39.0457 43.1633C39.4082 45.3322 39.784 47.5316 40.1731 49.7617C40.5794 51.9478 41.0058 54.1798 41.452 56.4577L31.8496 62.7101L26.1633 44.136L25.6131 44.3755L28.319 62.9928L19.5217 68.8401Z" fill="white"/>
<path d="M58.6732 53.7069C56.5534 54.2956 54.5916 53.9583 52.7878 52.6949C50.9839 51.4315 49.6226 49.1458 48.7039 45.8377C48.1954 44.007 47.885 42.0175 47.7727 39.8692C47.6604 37.7209 47.7337 35.5556 47.9925 33.3735C48.2513 31.1913 48.6788 29.118 49.2748 27.1535C50.2278 23.9828 51.5759 21.2387 53.3193 18.9209C55.0627 16.6032 57.1548 15.1054 59.5958 14.4275C61.5228 13.8923 63.1385 13.9798 64.4428 14.69C65.7703 15.3592 66.8569 16.4066 67.7025 17.8323C68.5393 19.2259 69.1851 20.7417 69.6401 22.3797C70.7015 26.2017 71.0975 29.9318 70.8279 33.5699C70.5815 37.167 69.8435 40.3645 68.614 43.1622C67.4023 46.0241 65.9106 48.3758 64.1387 50.2171C62.39 52.0173 60.5682 53.1806 58.6732 53.7069ZM59.0671 45.0352C60.5124 44.6338 61.6472 43.7997 62.4716 42.5329C63.3281 41.2572 63.9366 39.7736 64.2972 38.0821C64.6487 36.3585 64.7898 34.6242 64.7203 32.8791C64.6508 31.1341 64.4332 29.6031 64.0674 28.2863C63.9247 27.7724 63.7249 27.2398 63.468 26.6885C63.2022 26.105 62.8462 25.633 62.4002 25.2726C61.9541 24.9121 61.3938 24.8256 60.7194 25.0129C59.242 25.4232 58.0607 26.3394 57.1756 27.7614C56.2816 29.1513 55.6606 30.7768 55.3126 32.6378C54.9735 34.5309 54.8342 36.3339 54.8948 38.0469C54.9554 39.7598 55.1686 41.2747 55.5343 42.5915C55.7216 43.2659 56.1587 43.9056 56.8456 44.5105C57.5236 45.0833 58.2641 45.2582 59.0671 45.0352Z" fill="white"/>
<path d="M78.295 48.4564L78.9477 35.215C78.989 32.7823 79.0535 30.2786 79.1411 27.7042C79.2288 25.1297 79.2883 22.5931 79.3199 20.0944C79.3843 17.5908 79.3721 15.2503 79.283 13.073C81.0737 12.1991 83.0372 11.4679 85.1738 10.8794C87.3054 10.258 89.4427 9.78734 91.5856 9.46753C94.0912 9.09359 95.8702 9.38418 96.9227 10.3393C98.0082 11.2895 98.6887 12.6877 98.9643 14.5339C99.2152 16.2153 99.073 17.9722 98.5376 19.8046C97.9973 21.6041 97.1876 23.2921 96.1085 24.8686C95.0574 26.4073 93.8326 27.6854 92.4342 28.703C93.2244 29.9331 94.0673 31.2903 94.9628 32.7743C95.8864 34.2205 96.7507 35.6081 97.5557 36.9372C98.0084 37.7122 98.4611 38.4872 98.9138 39.2622C99.3994 40.0323 99.8686 40.8048 100.321 41.5798L93.0547 45.3942L90.3888 39.7256C89.6483 38.151 88.9505 36.6374 88.2956 35.1849C87.6688 33.6944 87.2756 32.6409 87.1162 32.0243L86.5028 32.3181C86.4826 32.8603 86.4534 33.4545 86.415 34.1006C86.4046 34.7088 86.3876 35.3854 86.364 36.1303C86.3404 36.8753 86.3143 37.6038 86.2858 38.3158C86.2523 38.9949 86.2188 39.6739 86.1854 40.353L85.9963 45.1838L78.295 48.4564ZM86.7133 25.2597C87.2969 25.1052 87.9853 24.7497 88.7785 24.1932C89.5997 23.5988 90.3897 22.9079 91.1485 22.1206C91.9402 21.3284 92.5812 20.5419 93.0713 19.761C93.5614 18.9801 93.7671 18.3259 93.6883 17.7984C93.5899 17.139 93.1303 16.7695 92.3096 16.6898C91.5169 16.5722 90.4941 16.6068 89.2413 16.7938L88.1534 16.9562C87.9605 17.0187 87.7816 17.0622 87.6168 17.0868C87.452 17.1114 87.2871 17.136 87.1223 17.1606L86.7133 25.2597Z" fill="white"/>
<path d="M105.364 44.6839C105.8 42.3377 106.219 40.0253 106.624 37.7467C107.028 35.468 107.416 33.2232 107.789 31.0121C108.379 27.0276 108.955 23.0937 109.515 19.2101C110.074 15.2933 110.455 11.5647 110.657 8.02445L113.261 8.10287C113.728 8.12335 114.179 8.14429 114.613 8.16569C115.08 8.18617 115.531 8.20711 115.965 8.22851C116.466 8.24808 116.967 8.26765 117.467 8.28721C117.967 8.27346 118.467 8.2597 118.967 8.24595C118.907 8.51435 118.805 9.05069 118.661 9.85497C118.55 10.6583 118.422 11.4788 118.278 12.3164C118.167 13.1198 118.082 13.6723 118.024 13.9741L117.26 18.9469L117.559 18.8887C118.484 17.3627 119.553 15.5993 120.765 13.5985C121.977 11.5977 123.108 9.68257 124.158 7.85299C125.82 7.67386 127.482 7.47807 129.144 7.26561C130.805 7.05316 132.465 6.79073 134.124 6.47831C133.386 7.53234 132.648 8.58638 131.91 9.64041C131.172 10.6944 130.451 11.748 129.746 12.8011C129.009 13.8885 128.208 15.0776 127.343 16.3686C126.479 17.6595 125.647 18.9329 124.847 20.1887C124.081 21.4102 123.443 22.4615 122.934 23.3425C123.346 24.9985 123.791 26.6369 124.269 28.2577C124.747 29.8784 125.258 31.465 125.801 33.0173C126.344 34.5696 126.887 36.1386 127.431 37.7243C127.975 39.3099 128.536 40.9117 129.114 42.5298C128.346 42.5176 127.563 42.5224 126.763 42.5445C125.963 42.5331 125.179 42.538 124.413 42.5591C123.446 42.5857 122.514 42.628 121.615 42.6861C120.715 42.7109 119.783 42.7532 118.818 42.8131C118.655 41.7505 118.475 40.6551 118.277 39.5268C118.078 38.3651 117.879 37.1868 117.679 35.9919C117.481 34.8302 117.283 33.6852 117.085 32.5569C116.886 31.3953 116.689 30.2836 116.493 29.2219L115.622 30.2963C115.415 31.269 115.199 32.5088 114.974 34.0155C114.861 34.7523 114.731 35.4894 114.585 36.2271C114.471 36.9305 114.356 37.6172 114.241 38.2873C114.13 39.0907 114.003 39.9112 113.859 40.7488C113.714 41.553 113.571 42.3907 113.428 43.2616L105.364 44.6839Z" fill="white"/>
<path d="M142.157 45.1764C139.968 44.9626 138.259 43.9417 137.031 42.1136C135.803 40.2856 135.356 37.663 135.689 34.246C135.874 32.355 136.301 30.3871 136.969 28.3424C137.638 26.2977 138.485 24.304 139.513 22.3613C140.54 20.4186 141.685 18.6382 142.948 17.0199C144.978 14.4049 147.224 12.33 149.685 10.7953C152.146 9.26057 154.637 8.61632 157.158 8.86256C159.149 9.05697 160.625 9.72023 161.586 10.8523C162.583 11.9545 163.22 13.3229 163.496 14.9574C163.775 16.5588 163.832 18.2055 163.666 19.8974C163.281 23.8453 162.307 27.4678 160.746 30.765C159.221 34.0323 157.382 36.7497 155.228 38.9172C153.067 41.1511 150.829 42.8081 148.513 43.8881C146.233 44.9381 144.115 45.3676 142.157 45.1764ZM145.647 37.2279C147.139 37.3737 148.498 37.0041 149.724 36.119C150.982 35.2371 152.084 34.072 153.029 32.6237C153.978 31.1422 154.733 29.575 155.297 27.9219C155.86 26.2688 156.208 24.7622 156.341 23.402C156.393 22.8712 156.398 22.3023 156.357 21.6955C156.319 21.0554 156.157 20.4869 155.87 19.9901C155.584 19.4932 155.093 19.2108 154.396 19.1427C152.87 18.9937 151.438 19.4232 150.1 20.4313C148.766 21.4062 147.601 22.6992 146.607 24.3101C145.609 25.9542 144.83 27.5862 144.27 29.2061C143.71 30.826 143.363 32.3161 143.23 33.6763C143.162 34.3729 143.34 35.1271 143.763 35.9387C144.189 36.7172 144.817 37.1469 145.647 37.2279Z" fill="white"/>
<path d="M170.054 49.9471C169.077 49.7329 168.13 49.3035 167.214 48.6589C166.297 48.0143 165.594 47.1775 165.103 46.1484C164.612 45.1194 164.516 43.9211 164.816 42.5536L164.902 42.1629C164.937 42.0001 164.982 41.8734 165.036 41.7828C165.319 40.9577 165.692 39.8792 166.155 38.5474C166.65 37.2228 167.203 35.7913 167.813 34.253C168.431 32.6821 169.045 31.1275 169.655 29.5892C170.298 28.0581 170.876 26.6663 171.39 25.4139C172.449 22.9162 173.301 20.9018 173.944 19.3706C174.586 17.8395 175.082 16.6685 175.431 15.8576C175.819 15.0213 176.108 14.4023 176.299 14.0004C176.664 14.0464 177.045 14.0959 177.443 14.1491C177.881 14.1768 178.331 14.2243 178.794 14.2917C179.264 14.3266 179.714 14.3741 180.145 14.4344C180.608 14.5018 181.055 14.5656 181.485 14.6259L184.528 14.9861C183.67 16.8795 182.848 18.6787 182.065 20.3838C181.321 22.0634 180.612 23.6653 179.936 25.1893L175.323 35.4902C174.949 36.2613 174.652 36.913 174.433 37.4451C174.189 37.9375 173.896 38.5728 173.555 39.3511C173.253 40.104 173.031 40.806 172.888 41.4572C172.774 41.9781 172.808 42.4463 172.99 42.8615C173.179 43.2443 173.469 43.4784 173.859 43.5641C174.413 43.6855 174.915 43.5738 175.366 43.2291C175.817 42.8844 176.224 42.4277 176.588 41.859C176.951 41.2904 177.266 40.711 177.532 40.1209C177.805 39.4983 178.033 39.0023 178.217 38.633C178.871 37.2067 179.482 35.822 180.049 34.4791C180.656 33.1107 181.281 31.661 181.924 30.1298C182.6 28.6058 183.361 26.8447 184.209 24.8466C184.784 23.4711 185.362 22.0793 185.943 20.6712C186.565 19.2377 187.174 17.7844 187.77 16.3112L195.3 17.4507C195.3 17.4507 194.983 18.2 194.347 19.6986C193.711 21.1972 192.77 23.465 191.524 26.5019C191.032 27.6566 190.475 28.9507 189.854 30.3842C189.265 31.8248 188.64 33.2746 187.979 34.7335C187.317 36.1924 186.69 37.5735 186.097 38.8767C185.537 40.1871 185.036 41.3057 184.594 42.2325C183.357 44.7596 181.887 46.6384 180.184 47.8688C178.488 49.0667 176.742 49.7928 174.946 50.0473C173.182 50.309 171.552 50.2756 170.054 49.9471Z" fill="white"/>
<path d="M191.073 54.4586C192 52.8352 192.922 51.2277 193.839 49.636C194.798 48.0231 195.715 46.4314 196.59 44.8608C199.794 39.2528 202.693 33.8241 205.285 28.5745C204.959 28.3954 204.606 28.2425 204.226 28.1161C203.857 27.958 203.493 27.8368 203.135 27.7525C202.355 27.5628 201.644 27.2202 201 26.7248C201.116 26.4824 201.222 26.2189 201.317 25.9343C201.422 25.618 201.527 25.3018 201.633 24.9856C201.749 24.6377 201.859 24.3057 201.965 23.9894C202.081 23.6416 202.207 23.3148 202.344 23.0091C202.492 22.6718 202.629 22.3134 202.755 21.9339C202.892 21.5228 203.045 21.117 203.214 20.7164C204.015 21.0537 204.821 21.3751 205.633 21.6807C206.445 21.9864 207.262 22.2762 208.084 22.5502C210.424 23.3301 212.68 23.9941 214.851 24.5421C217.054 25.1006 219.094 25.5696 220.97 25.9489L219.595 28.3365L218.425 30.4237C217.993 31.1932 217.634 31.7941 217.35 32.2263C216.97 32.2052 216.596 32.1683 216.227 32.1157C215.858 32.063 215.495 31.9945 215.136 31.9102C214.778 31.8259 214.398 31.7521 213.998 31.6889C213.629 31.6362 213.26 31.5835 212.891 31.5308C211.637 33.7129 210.567 35.605 209.682 37.2073C208.828 38.8201 208.011 40.3749 207.231 41.8718C206.493 43.3476 205.655 44.9657 204.717 46.726C203.115 49.7408 201.561 52.8241 200.053 55.976L191.073 54.4586Z" fill="white"/>
<path d="M216.581 64.1404C215.368 63.585 214.302 62.7115 213.381 61.5197C212.475 60.2976 211.787 58.7176 211.318 56.7796L217.702 51.7296C217.772 52.4581 218.007 53.2258 218.407 54.0325C218.838 54.8531 219.347 55.5816 219.936 56.2178C220.524 56.8541 221.076 57.2903 221.591 57.5263C222.379 57.8873 223.232 57.985 224.152 57.8195C225.101 57.6679 225.763 57.183 226.138 56.3647C226.624 55.3041 226.583 54.1122 226.016 52.7891C225.449 51.466 224.754 50.1025 223.931 48.6986C223.138 47.3086 222.484 45.8542 221.97 44.3353C221.5 42.8001 221.584 41.3355 222.223 39.9415C222.945 38.3657 224.066 37.1194 225.586 36.2025C227.12 35.2554 228.843 34.615 230.756 34.2814C232.683 33.9175 234.589 33.8378 236.476 34.042C238.406 34.2299 240.114 34.664 241.599 35.3444C242.659 35.8303 243.561 36.4634 244.304 37.2436C245.06 37.9934 245.53 38.8873 245.715 39.9251C245.899 40.9629 245.686 42.1485 245.075 43.4819C244.978 43.694 244.866 43.8992 244.738 44.0975C244.641 44.3096 244.529 44.5148 244.401 44.713C244.274 44.9113 244.124 45.1177 243.952 45.3324C243.825 45.5306 243.69 45.744 243.549 45.9726L236.083 44.8619C236.255 44.6472 236.411 44.4256 236.553 44.197C236.724 43.9824 236.866 43.7538 236.977 43.5114C237.393 42.6023 237.525 41.8744 237.372 41.3277C237.264 40.7646 236.952 40.365 236.437 40.129C236.164 40.004 235.701 39.9751 235.047 40.0421C234.406 40.0788 233.756 40.2575 233.096 40.5783C232.48 40.8827 232.033 41.3379 231.755 41.944C231.297 42.944 231.324 43.9648 231.837 45.0064C232.394 46.0315 233.065 47.1273 233.851 48.2939C234.227 48.833 234.581 49.5816 234.912 50.5399C235.256 51.4678 235.399 52.5966 235.34 53.9261C235.325 55.2392 234.922 56.7594 234.13 58.4867C233.103 60.7292 231.64 62.4421 229.741 63.6254C227.873 64.8226 225.777 65.4756 223.454 65.5845C221.144 65.6631 218.853 65.1817 216.581 64.1404Z" fill="white"/>
<path d="M44.5 78C108.091 61.951 144.24 60.602 210 78" stroke="#FFFAFA" stroke-width="3"/>
<defs>
<filter id="filter0_d_7_75" x="17.4997" y="51.4997" width="217.5" height="52.1686" filterUnits="userSpaceOnUse" color-interpolation-filters="sRGB">
<feFlood flood-opacity="0" result="BackgroundImageFix"/>
<feColorMatrix in="SourceAlpha" type="matrix" values="0 0 0 0 0 0 0 0 0 0 0 0 0 0 0 0 0 0 127 0" result="hardAlpha"/>
<feOffset dy="4"/>
<feGaussianBlur stdDeviation="2"/>
<feComposite in2="hardAlpha" operator="out"/>
<feColorMatrix type="matrix" values="0 0 0 0 0 0 0 0 0 0 0 0 0 0 0 0 0 0 0.25 0"/>
<feBlend mode="normal" in2="BackgroundImageFix" result="effect1_dropShadow_7_75"/>
<feBlend mode="normal" in="SourceGraphic" in2="effect1_dropShadow_7_75" result="shape"/>
</filter>
</defs>
</svg>
